<?xml version="1.0" standalone="no"?>
<svg xmlns:xlink="http://www.w3.org/1999/xlink" id="wave" style="transform:rotate(0deg); transition: 0.3s" viewBox="0 0 1440 440" version="1.1" xmlns="http://www.w3.org/2000/svg"><defs><linearGradient id="sw-gradient-0" x1="0" x2="0" y1="1" y2="0"><stop stop-color="rgba(205.986, 243, 62, 1)" offset="0%"/><stop stop-color="rgba(11, 122.743, 255, 1)" offset="100%"/></linearGradient></defs><path style="transform:translate(0, 0px); opacity:1" fill="url(#sw-gradient-0)" d="M0,220L12.6,234.7C25.3,249,51,279,76,256.7C101.1,235,126,161,152,124.7C176.8,88,202,88,227,80.7C252.6,73,278,59,303,102.7C328.4,147,354,249,379,300.7C404.2,352,429,352,455,344.7C480,337,505,323,531,322.7C555.8,323,581,337,606,300.7C631.6,264,657,176,682,132C707.4,88,733,88,758,102.7C783.2,117,808,147,834,183.3C858.9,220,884,264,909,286C934.7,308,960,308,985,315.3C1010.5,323,1036,337,1061,315.3C1086.3,293,1112,235,1137,205.3C1162.1,176,1187,176,1213,154C1237.9,132,1263,88,1288,58.7C1313.7,29,1339,15,1364,14.7C1389.5,15,1415,29,1440,88C1465.3,147,1491,249,1516,256.7C1541.1,264,1566,176,1592,183.3C1616.8,191,1642,293,1667,278.7C1692.6,264,1718,132,1743,88C1768.4,44,1794,88,1806,110L1818.9,132L1818.9,440L1806.3,440C1793.7,440,1768,440,1743,440C1717.9,440,1693,440,1667,440C1642.1,440,1617,440,1592,440C1566.3,440,1541,440,1516,440C1490.5,440,1465,440,1440,440C1414.7,440,1389,440,1364,440C1338.9,440,1314,440,1288,440C1263.2,440,1238,440,1213,440C1187.4,440,1162,440,1137,440C1111.6,440,1086,440,1061,440C1035.8,440,1011,440,985,440C960,440,935,440,909,440C884.2,440,859,440,834,440C808.4,440,783,440,758,440C732.6,440,707,440,682,440C656.8,440,632,440,606,440C581.1,440,556,440,531,440C505.3,440,480,440,455,440C429.5,440,404,440,379,440C353.7,440,328,440,303,440C277.9,440,253,440,227,440C202.1,440,177,440,152,440C126.3,440,101,440,76,440C50.5,440,25,440,13,440L0,440Z"/></svg>